<svg width="74" height="22" viewBox="0 0 74 22" fill="none" xmlns="http://www.w3.org/2000/svg">
<path d="M1.54919 17.1037C0.693597 17.1037 0 16.4101 0 15.5546V4.70353C0 2.10584 2.10584 0 4.70353 0H6.4139C7.72786 0 8.83025 0.244975 9.72107 0.734926C10.6175 1.22488 11.2939 1.89856 11.7505 2.75597C12.2126 3.60782 12.4436 4.57659 12.4436 5.66227C12.4436 6.7591 12.2126 7.73343 11.7505 8.58528C11.2884 9.43712 10.6063 10.108 9.70437 10.598C8.80241 11.0824 7.69167 11.3245 6.37215 11.3245H3.39486C2.69147 11.3245 2.12127 10.7543 2.12127 10.051C2.12127 9.34757 2.69147 8.77736 3.39486 8.77736H5.95458C6.72291 8.77736 7.35205 8.64374 7.842 8.37649C8.33195 8.10925 8.69385 7.74178 8.92769 7.2741C9.16709 6.80642 9.2868 6.26915 9.2868 5.66227C9.2868 5.0554 9.16709 4.52091 8.92769 4.0588C8.69385 3.59669 8.32917 3.23757 7.83365 2.98146C7.3437 2.71978 6.71177 2.58895 5.93787 2.58895C4.36967 2.58895 3.09838 3.86023 3.09838 5.42843V15.5546C3.09838 16.4101 2.40479 17.1037 1.54919 17.1037Z" fill="url(#paint0_linear_56_1235)"/>
<path d="M16.5129 0C17.3477 0 18.0245 0.676771 18.0245 1.51161V15.5921C18.0245 16.427 17.3477 17.1037 16.5129 17.1037C15.678 17.1037 15.0013 16.427 15.0013 15.5921V1.51161C15.0013 0.67677 15.678 0 16.5129 0Z" fill="url(#paint1_linear_56_1235)"/>
<path d="M24.8246 17.3626C24.0118 17.3626 23.2796 17.2179 22.6282 16.9284C21.9824 16.6333 21.4702 16.199 21.0916 15.6255C20.7185 15.0521 20.532 14.345 20.532 13.5043C20.532 12.7805 20.6656 12.182 20.9329 11.7087C21.2001 11.2355 21.5648 10.8569 22.0269 10.5729C22.489 10.289 23.0096 10.0746 23.5886 9.92986C24.1732 9.77953 24.7773 9.67096 25.4009 9.60415C26.1525 9.52621 26.7622 9.45661 27.2299 9.39537C27.6975 9.32856 28.0372 9.22834 28.2487 9.09472C28.4659 8.95552 28.5744 8.74117 28.5744 8.45165V8.40155C28.5744 7.7724 28.3879 7.28524 28.0149 6.94004C27.6419 6.59485 27.1046 6.42226 26.4031 6.42226C25.6626 6.42226 25.0752 6.58372 24.6409 6.90664C24.569 6.96083 24.5009 7.01667 24.4368 7.07415C23.9208 7.53686 23.2759 7.98028 22.5897 7.88284C21.7227 7.7597 21.1437 6.8706 21.6583 6.16194C21.7783 5.99662 21.9095 5.8412 22.052 5.69568C22.5642 5.16676 23.1905 4.77145 23.931 4.50978C24.6715 4.24253 25.49 4.10891 26.3864 4.10891C27.0044 4.10891 27.6196 4.18129 28.232 4.32604C28.8445 4.4708 29.404 4.71021 29.9107 5.04427C30.4173 5.37276 30.8238 5.82095 31.13 6.38885C31.4418 6.95675 31.5977 7.66662 31.5977 8.51847V15.6506C31.5977 16.4531 30.9471 17.1037 30.1445 17.1037H29.5724C29.0858 17.1037 28.6914 16.7093 28.6914 16.2227V15.4039C28.6914 15.3695 28.6635 15.3416 28.6291 15.3416C28.6058 15.3416 28.5845 15.3546 28.5735 15.3752C28.391 15.719 28.138 16.0418 27.8145 16.3438C27.486 16.65 27.0712 16.8977 26.5701 17.087C26.0746 17.2708 25.4928 17.3626 24.8246 17.3626ZM25.6097 15.1412C26.2166 15.1412 26.7427 15.0215 27.1881 14.782C27.6335 14.5371 27.9759 14.2141 28.2153 13.8133C28.4603 13.4124 28.5828 12.9754 28.5828 12.5021V11.5245C28.5828 11.3115 28.3028 11.1478 28.0984 11.2076C27.8757 11.2744 27.6252 11.3329 27.3468 11.383C27.0684 11.4331 26.7928 11.4777 26.52 11.5166C26.2472 11.5556 26.0105 11.589 25.8101 11.6168C25.3591 11.6781 24.9555 11.7783 24.5992 11.9175C24.2428 12.0567 23.9617 12.2516 23.7557 12.5021C23.5497 12.7471 23.4467 13.0644 23.4467 13.4542C23.4467 14.0109 23.6499 14.4313 24.0563 14.7152C24.4628 14.9992 24.9805 15.1412 25.6097 15.1412Z" fill="url(#paint2_linear_56_1235)"/>
<path d="M37.6608 9.58745V15.5921C37.6608 16.427 36.984 17.1037 36.1492 17.1037C35.3144 17.1037 34.6376 16.427 34.6376 15.5921V5.72073C34.6376 4.92279 35.2844 4.27594 36.0824 4.27594H36.4373C37.0392 4.27594 37.5272 4.76388 37.5272 5.3658V6.36566C37.5272 6.41537 37.5675 6.45566 37.6172 6.45566C37.6537 6.45566 37.6865 6.43356 37.7009 6.40001C37.9971 5.7079 38.4598 5.15577 39.0889 4.74362C39.7403 4.32048 40.5448 4.10891 41.5025 4.10891C42.3877 4.10891 43.1588 4.29821 43.8158 4.6768C44.4784 5.0554 44.9906 5.60381 45.3525 6.32204C45.7199 7.04026 45.9009 7.91159 45.8953 8.93604V15.5921C45.8953 16.427 45.2186 17.1037 44.3837 17.1037C43.5489 17.1037 42.8721 16.427 42.8721 15.5921V9.40372C42.8721 8.5463 42.6494 7.8754 42.204 7.39102C41.7641 6.90664 41.1545 6.66445 40.375 6.66445C39.8461 6.66445 39.3756 6.78137 38.9636 7.01521C38.5572 7.24348 38.2371 7.57475 38.0032 8.00903C37.7749 8.4433 37.6608 8.96944 37.6608 9.58745Z" fill="url(#paint3_linear_56_1235)"/>
<path d="M54.6476 17.3543C53.3615 17.3543 52.2508 17.087 51.3154 16.5525C50.3856 16.0125 49.6702 15.2497 49.1691 14.2643C48.668 13.2732 48.4175 12.1068 48.4175 10.765C48.4175 9.44548 48.668 8.28741 49.1691 7.2908C49.6757 6.28863 50.3828 5.50916 51.2903 4.9524C52.1979 4.39007 53.2641 4.10891 54.489 4.10891C55.2796 4.10891 56.0256 4.23696 56.7271 4.49307C57.4342 4.74362 58.0578 5.13335 58.5979 5.66227C59.1435 6.1912 59.5722 6.86488 59.884 7.68332C60.1958 8.4962 60.3517 9.46496 60.3517 10.5896C60.3517 11.1016 59.9366 11.5166 59.4246 11.5166H50.8561C50.2934 11.5166 49.8372 11.0605 49.8372 10.4978C49.8372 9.93505 50.2934 9.47888 50.8561 9.47888H55.8475C56.7321 9.47888 57.5001 8.71118 57.0779 7.93387C56.8329 7.47732 56.4905 7.11821 56.0507 6.85653C55.6164 6.59485 55.1097 6.46401 54.5307 6.46401C53.9127 6.46401 53.3699 6.61434 52.9022 6.91499C52.4345 7.21007 52.0698 7.59981 51.8081 8.08419C51.552 8.56301 51.4212 9.08915 51.4156 9.66261V11.4415C51.4156 12.1875 51.552 12.8278 51.8248 13.3623C52.0977 13.8912 52.479 14.2977 52.969 14.5816C53.4589 14.86 54.0324 14.9992 54.6894 14.9992C55.1292 14.9992 55.5273 14.9379 55.8836 14.8154C56.24 14.6874 56.549 14.5009 56.8106 14.2559C57.2807 13.8158 57.8533 13.3962 58.4932 13.4681L58.5589 13.4755C59.4449 13.5751 60.0596 14.4563 59.5492 15.1873C59.4452 15.3364 59.3313 15.4797 59.2075 15.6172C58.712 16.1684 58.0773 16.5971 57.3034 16.9033C56.5295 17.204 55.6442 17.3543 54.6476 17.3543Z" fill="url(#paint4_linear_56_1235)"/>
<path d="M64.4209 21.9142C64.0089 21.9142 63.6275 21.8808 63.2768 21.814C62.7986 21.7291 62.5558 21.2416 62.6944 20.7762L62.81 20.3881C62.9989 19.7538 63.6673 19.4361 64.329 19.4254C64.6742 19.4199 64.9777 19.3113 65.2393 19.0997C65.5066 18.8937 65.7321 18.5485 65.9158 18.0642C66.083 17.6164 66.087 17.1241 65.927 16.6737L62.2279 6.26055C61.8841 5.29264 62.6019 4.27594 63.6291 4.27594C64.2831 4.27594 64.8603 4.70329 65.0512 5.32883L67.6668 13.8997C67.6784 13.9377 67.7134 13.9636 67.7532 13.9636C67.7928 13.9636 67.8279 13.9377 67.8395 13.8997L70.4623 5.3295C70.6539 4.70346 71.2318 4.27594 71.8865 4.27594C72.9165 4.27594 73.6356 5.29633 73.2891 6.26631L68.8639 18.6571C68.6245 19.3364 68.3071 19.9182 67.9118 20.4026C67.5165 20.8925 67.0321 21.2655 66.4586 21.5217C65.8908 21.7833 65.2115 21.9142 64.4209 21.9142Z" fill="url(#paint5_linear_56_1235)"/>
<defs>
<linearGradient id="paint0_linear_56_1235" x1="0" y1="10.9571" x2="74" y2="10.9571" gradientUnits="userSpaceOnUse">
<stop stop-color="#C0E952"/>
<stop offset="1" stop-color="white"/>
</linearGradient>
<linearGradient id="paint1_linear_56_1235" x1="0" y1="10.9571" x2="74" y2="10.9571" gradientUnits="userSpaceOnUse">
<stop stop-color="#C0E952"/>
<stop offset="1" stop-color="white"/>
</linearGradient>
<linearGradient id="paint2_linear_56_1235" x1="0" y1="10.9571" x2="74" y2="10.9571" gradientUnits="userSpaceOnUse">
<stop stop-color="#C0E952"/>
<stop offset="1" stop-color="white"/>
</linearGradient>
<linearGradient id="paint3_linear_56_1235" x1="0" y1="10.9571" x2="74" y2="10.9571" gradientUnits="userSpaceOnUse">
<stop stop-color="#C0E952"/>
<stop offset="1" stop-color="white"/>
</linearGradient>
<linearGradient id="paint4_linear_56_1235" x1="0" y1="10.9571" x2="74" y2="10.9571" gradientUnits="userSpaceOnUse">
<stop stop-color="#C0E952"/>
<stop offset="1" stop-color="white"/>
</linearGradient>
<linearGradient id="paint5_linear_56_1235" x1="0" y1="10.9571" x2="74" y2="10.9571" gradientUnits="userSpaceOnUse">
<stop stop-color="#C0E952"/>
<stop offset="1" stop-color="white"/>
</linearGradient>
</defs>
</svg>
